{"title":"3 An Eye For an Eye 2018 1080p WEB-DL DD 5.1 x264 [MW]","magnet":"magnet:?xt=urn:btih:5bcac80cab600d01b852eb09df81d5d66fed7219&dn=3+An+Eye+For+an+Eye+2018+1080p+WEB-DL+DD+5.1+x264+%5BMW%5D&tr=udp%3A%2F%2Ftracker.leechers-paradise.org%3A6969&tr=udp%3A%2F%2Fzer0day.ch%3A1337&tr=udp%3A%2F%2Fopen.demonii.com%3A1337&tr=udp%3A%2F%2Ftracker.coppersurfer.tk%3A6969&tr=udp%3A%2F%2Fexodus.desync.com%3A6969","uploader":"MFreaky","categoryP":"video","categoryS":"hd___movies","size":"1702737161","seeders":"3","leechers":"18","description":" <a href=\"https://pichub.site/image/ETpmv\" rel=\"nofollow\" target=\"_NEW\">https://pichub.site/image/ETpmv</a> <a href=\"\nhttps://pichub.site/image/ETlY9\" rel=\"nofollow\" target=\"_NEW\">\nhttps://pichub.site/image/ETlY9</a> <a href=\"\nhttps://pichub.site/image/ET2sd\" rel=\"nofollow\" target=\"_NEW\">\nhttps://pichub.site/image/ET2sd</a> <a href=\"\nhttps://pichub.site/image/ET6zu\" rel=\"nofollow\" target=\"_NEW\">\nhttps://pichub.site/image/ET6zu</a> <a href=\"\nhttps://pichub.site/image/ETP5R\" rel=\"nofollow\" target=\"_NEW\">\nhttps://pichub.site/image/ETP5R</a>\r\n\r\nIMDB <a href=\"\nhttps://www.imdb.com/title/tt5618160/\" rel=\"nofollow\" target=\"_NEW\">\nhttps://www.imdb.com/title/tt5618160/</a>\r\n\r\nVideo\r\nFormat                                   : AVC\r\nFormat/Info                              : Advanced Video Codec\r\nFormat profile                           : High@L4.1\r\nFormat settings                          : CABAC / 4 Ref Frames\r\nFormat settings, CABAC                   : Yes\r\nFormat settings, RefFrames               : 4 frames\r\nCodec ID                                 : V_MPEG4/ISO/AVC\r\nDuration                                 : 1 h 22 min\r\nBit rate                                 : 2 400 kb/s\r\nWidth                                    : 1 912 pixels\r\nHeight                                   : 1 008 pixels\r\nDisplay aspect ratio                     : 1.897\r\nFrame rate mode                          : Constant\r\nFrame rate                               : 23.976 (24000/1001) FPS\r\nColor space                              : YUV\r\nChroma subsampling                       : 4:2:0\r\nBit depth                                : 8 bits\r\nBits/(Pixel*Frame)                       : 0.052\r\nStream size                              : 1.36 GiB (86%)\r\nWriting library                          : x264 core 155 r2901 7d0ff22\r\n\r\nAudio\r\nFormat                                   : AC-3\r\nFormat/Info                              : Audio Coding 3\r\nCodec ID                                 : A_AC3\r\nDuration                                 : 1 h 22 min\r\nBit rate mode                            : Constant\r\nBit rate                                 : 384 kb/s\r\nChannel(s)                               : 6 channels\r\nChannel positions                        : Front: L C R, Side: L R, LFE\r\nSampling rate                            : 48.0 kHz\r\nFrame rate                               : 31.250 FPS (1536 SPF)\r\nBit depth                                : 16 bits\r\nStream size                              : 226 MiB (14%)\r\nLanguage                                 : English","last_updated":"2018-10-03T12:09:13.645Z","parsed":{"xt":"urn:btih:5bcac80cab600d01b852eb09df81d5d66fed7219","dn":"3 An Eye For an Eye 2018 1080p WEB-DL DD 5.1 x264 [MW]","tr":["udp://exodus.desync.com:6969","udp://open.demonii.com:1337","udp://tracker.coppersurfer.tk:6969","udp://tracker.leechers-paradise.org:6969","udp://zer0day.ch:1337"],"infoHash":"5bcac80cab600d01b852eb09df81d5d66fed7219","infoHashBuffer":{"type":"Buffer","data":[91,202,200,12,171,96,13,1,184,82,235,9,223,129,213,214,111,237,114,25]},"name":"3 An Eye For an Eye 2018 1080p WEB-DL DD 5.1 x264 [MW]","announce":["udp://exodus.desync.com:6969","udp://open.demonii.com:1337","udp://tracker.coppersurfer.tk:6969","udp://tracker.leechers-paradise.org:6969","udp://zer0day.ch:1337"],"urlList":[]}}